<svg version="1.2" xmlns="http://www.w3.org/2000/svg" viewBox="0 0 183 62" width="183" height="62">
	<title>&lt;Group&gt;</title>
	<style>
		.s0 { fill: #ffffff } 
	</style>
	<g id="&lt;Group&gt;">
		<g id="&lt;Group&gt;">
			<path id="&lt;Compound Path&gt;" fill-rule="evenodd" class="s0" d="m0.5 28.9h9.6c4.3 0 7.2 2.2 7.2 5.8 0 3.8-2.8 6.1-7.3 6.1h-5v6.6h-4.5zm4.5 8.4h4.7c1.9 0 3.1-0.7 3.1-2.5 0-1.5-1-2.5-3.1-2.5h-4.7z"/>
			<path id="&lt;Compound Path&gt;" fill-rule="evenodd" class="s0" d="m39.6 38.1c0 5.1-3.4 9.7-10.1 9.7-6.3 0-9.9-4.3-9.9-9.7 0-5.1 3.8-9.6 10.1-9.6 6.4 0 9.9 4.5 9.9 9.6zm-15.2 0c0 3.4 1.7 6.2 5.3 6.2 3.7 0 5.2-3.1 5.2-6.2 0-3.2-1.6-6.1-5.4-6.1-3.5 0-5.1 2.9-5.1 6.1z"/>
			<path id="&lt;Compound Path&gt;" class="s0" d="m47.5 28.9v10.5c0 3.9 2.1 4.9 4.4 4.9 2.4 0 4-1.1 4-4.9v-10.5h4.5v10.6c0 5.6-3.2 8.3-8.6 8.3-5.4 0-8.8-2.4-8.8-8.2v-10.7z"/>
			<path id="&lt;Compound Path&gt;" fill-rule="evenodd" class="s0" d="m69.4 40.3v7.1h-4.4v-18.5h10.1c4.2 0 6.7 2.1 6.7 5.3 0 2.4-1.4 3.8-3.3 4.4 0.8 0.3 2.8 1 2.8 4.3v0.9c0 1.3 0 2.7 0.2 3.6h-4.6c-0.3-0.8-0.3-1.9-0.3-3.9v-0.6c0-1.9-0.7-2.6-3.4-2.6zm0-3.4h4.6c2.2 0 3.1-0.8 3.1-2.3 0-1.5-0.9-2.3-3.1-2.3h-4.6z"/>
			<path id="&lt;Compound Path&gt;" class="s0" d="m100.2 28.9h4.5v8.1c2.6-2.5 5.2-4.8 8.7-8.1h5.5l-8.7 8 9.2 10.5h-5.6l-6.8-8.1-2.3 2v6.1h-4.5z"/>
			<path id="&lt;Compound Path&gt;" fill-rule="evenodd" class="s0" d="m139.4 38.1c0 5.1-3.4 9.7-10.2 9.7-6.2 0-9.8-4.3-9.8-9.7 0-5.1 3.8-9.6 10.1-9.6 6.4 0 9.9 4.5 9.9 9.6zm-15.3 0c0 3.4 1.8 6.2 5.4 6.2 3.7 0 5.1-3.1 5.1-6.2 0-3.2-1.6-6.1-5.3-6.1-3.6 0-5.2 2.9-5.2 6.1z"/>
			<path id="&lt;Compound Path&gt;" class="s0" d="m143.1 28.9h4.5v8.1c2.6-2.5 5.2-4.8 8.7-8.1h5.5l-8.7 8 9.1 10.5h-5.5l-6.8-8.1-2.3 2v6.1h-4.5z"/>
			<path id="&lt;Compound Path&gt;" fill-rule="evenodd" class="s0" d="m182.3 38.1c0 5.1-3.5 9.7-10.2 9.7-6.2 0-9.8-4.3-9.8-9.7 0-5.1 3.8-9.6 10-9.6 6.5 0 10 4.5 10 9.6zm-15.3 0c0 3.4 1.8 6.2 5.4 6.2 3.7 0 5.1-3.1 5.1-6.2 0-3.2-1.6-6.1-5.3-6.1-3.6 0-5.2 2.9-5.2 6.1z"/>
		</g>
		<g id="&lt;Group&gt;">
			<g id="&lt;Group&gt;">
				<path id="&lt;Path&gt;" class="s0" d="m90.2 0.6v18.5h-13l8.4-2.8c0.9-0.2 1.5-1 1.7-1.8l2.9-14z"/>
				<path id="&lt;Path&gt;" class="s0" d="m103.3 19.1l-8.2 2.3c-1 0.3-1.7 1.2-1.8 2.3l-3.1 37.3v-41.9z"/>
			</g>
		</g>
	</g>
</svg>