<svg width="134" height="24" viewBox="0 0 134 24" fill="none" xmlns="http://www.w3.org/2000/svg">
<path d="M9.67382 4H22.0949L21.308 7.90244H8.88696L9.67382 4Z" fill="white"/>
<path d="M15.3569 10.0269H26.6983L25.8658 13.9727H14.5229L15.3569 10.0269Z" fill="white"/>
<path d="M14.0691 16.0974H23.2567L22.42 19.9998H13.2324L14.0691 16.0974Z" fill="white"/>
<path fill-rule="evenodd" clip-rule="evenodd" d="M48.6378 4L45.4463 20H41.0239L36.4419 12.5486L34.9601 20H29.717L32.9085 4H37.3309L41.9129 11.4514L43.3947 4H48.6378ZM55.7891 8.06856L55.393 9.90576H61.2947L60.4741 13.9743H54.5951L53.4183 20H48.0385L51.2299 4H63.5971L62.7765 8.06856H55.7891ZM63.9601 8.18285H68.6333L66.2853 20H71.6652L74.0132 8.18285H78.6864L79.5298 4H64.8036L63.9601 8.18285ZM81.1153 20.0001C80.3274 20.0001 79.5871 19.9176 78.8944 19.7527C78.2018 19.5792 77.6303 19.3535 77.1801 19.0758L78.3619 16.8106C79.3404 17.3747 80.362 17.6568 81.427 17.6568C81.8167 17.6568 82.1154 17.6091 82.3232 17.5136C82.531 17.4181 82.6349 17.2879 82.6349 17.123C82.6349 16.9668 82.5267 16.841 82.3102 16.7455C82.1024 16.65 81.7691 16.5459 81.3102 16.4331C80.7041 16.2769 80.2019 16.1206 79.8036 15.9644C79.4053 15.7995 79.0546 15.5522 78.7516 15.2224C78.4572 14.8839 78.31 14.4413 78.31 13.8945C78.31 13.2089 78.4918 12.61 78.8555 12.098C79.2278 11.5773 79.7603 11.178 80.453 10.9003C81.1456 10.6139 81.9639 10.4707 82.9076 10.4707C83.583 10.4707 84.2107 10.5401 84.7909 10.679C85.3796 10.8092 85.8862 11.0001 86.3104 11.2518L85.2065 13.4909C84.8515 13.2653 84.4575 13.0961 84.0246 12.9832C83.6003 12.8704 83.1631 12.814 82.7128 12.814C82.2886 12.814 81.9595 12.8747 81.7258 12.9962C81.492 13.1177 81.3751 13.261 81.3751 13.4258C81.3751 13.5907 81.479 13.7209 81.6868 13.8164C81.9033 13.9119 82.2539 14.016 82.7388 14.1288C83.3276 14.2677 83.8211 14.4152 84.2194 14.5715C84.6264 14.7277 84.977 14.9707 85.2714 15.3005C85.5658 15.6303 85.713 16.0642 85.713 16.6023C85.713 17.2793 85.5268 17.8738 85.1545 18.3858C84.7822 18.8979 84.2497 19.2971 83.557 19.5835C82.8644 19.8612 82.0505 20.0001 81.1153 20.0001ZM89.2257 13.0613H86.5632L87.0437 10.679H95.4338L94.9532 13.0613H92.2908L90.953 19.7918H87.8879L89.2257 13.0613ZM97.111 18.2036H100.579L100.877 19.7918H103.93L101.774 10.679H98.7605L92.968 19.7918H96.2019L97.111 18.2036ZM99.7086 13.6602L100.15 15.9905H98.3708L99.7086 13.6602ZM109.461 20.0001C108.535 20.0001 107.716 19.8309 107.006 19.4924C106.305 19.1452 105.76 18.6635 105.37 18.0473C104.989 17.4311 104.798 16.7238 104.798 15.9254C104.798 14.8665 105.041 13.9249 105.526 13.1004C106.019 12.2759 106.699 11.6337 107.565 11.1737C108.439 10.705 109.431 10.4707 110.539 10.4707C111.414 10.4707 112.188 10.6313 112.864 10.9524C113.539 11.2648 114.041 11.7118 114.37 12.2933L112.162 14.0247C111.756 13.313 111.149 12.9572 110.344 12.9572C109.868 12.9572 109.444 13.0744 109.071 13.3087C108.699 13.543 108.409 13.8728 108.201 14.2981C107.993 14.7147 107.89 15.192 107.89 15.7301C107.89 16.2682 108.058 16.7021 108.396 17.0319C108.742 17.353 109.197 17.5136 109.76 17.5136C110.53 17.5136 111.206 17.1621 111.786 16.4591L113.591 18.1905C113.063 18.8415 112.461 19.3058 111.786 19.5835C111.119 19.8612 110.344 20.0001 109.461 20.0001ZM123.516 19.7918L120.554 14.8318L125.113 10.679H121.593L118.139 13.9075L118.788 10.679H115.775L113.957 19.7918H116.97L117.398 17.6177L118.256 16.8236L120.1 19.7918H123.516Z" fill="white"/>
</svg>
